<?xml version="1.0" encoding="utf-8"?>
<!-- Generator: Adobe Illustrator 16.0.0, SVG Export Plug-In . SVG Version: 6.00 Build 0)  -->
<!DOCTYPE svg PUBLIC "-//W3C//DTD SVG 1.1//EN" "http://www.w3.org/Graphics/SVG/1.1/DTD/svg11.dtd">
<svg version="1.1" id="Layer_1" xmlns="http://www.w3.org/2000/svg" xmlns:xlink="http://www.w3.org/1999/xlink" x="0px" y="0px"
	 width="100px" height="100px" viewBox="0 0 100 100" style="enable-background:new 0 0 100 100;" xml:space="preserve">
<path d="M89.215,43.205c-2.355-1.178-4.418-1.418-5.771-1.387c-0.018-2.338-0.745-6.568-5.198-9.762
	c-3.011-2.159-5.113-2.539-8.201-2.399c-2.76-9.419-11.403-15.945-21.285-15.945c-2.768,0-5.408,0.53-7.853,1.46
	c-0.771-1.441-1.878-2.693-3.319-3.726c-3.055-2.192-5.037-2.301-8.531-2.014c-3.516,0.284-7.538,3.745-8.863,6.071
	c-1.254-0.182-3.479-0.263-5.345,0.943c-2.483,1.599-3.049,4.359-3.162,5.904c-2.555,0.802-6.184,3.026-6.494,7.413
	c-0.253,3.572,0.905,5.621,1.922,6.71c1.017,1.092,2.397,1.743,3.69,1.743c0,0,0.002,0,0.005,0h15.883
	c0.869,8.445,6.44,15.632,14.499,18.545c0.45,2.199,1.449,3.597,2.372,4.433c0.537,0.488,1.368,0.445,1.853-0.092
	c0.487-0.537,0.446-1.367-0.092-1.854c-0.918-0.832-1.965-2.531-1.726-5.901c0.361-5.115,6.205-6.28,6.45-6.326
	c0.661-0.122,1.125-0.723,1.07-1.394c-0.002-0.039-0.271-3.838,2.396-5.558c2.062-1.326,5-0.526,5.025-0.519
	c0.506,0.147,1.053-0.026,1.383-0.436c0.068-0.083,0.416-0.522,0.641-0.963c0.945-1.874,4.937-5.519,8.133-5.779
	c3.578-0.293,5.195-0.209,8.021,1.815c4.945,3.547,4.063,8.646,4.023,8.855c-0.087,0.443,0.067,0.899,0.397,1.208
	c0.33,0.31,0.801,0.424,1.24,0.309c0.098-0.027,2.438-0.619,5.668,0.992c5.062,2.53,4.18,8.358,3.951,9.5
	c-1.033,5.159-5.725,5.108-6.324,5.069H70.814c-0.726,0-1.312,0.586-1.312,1.312c0,0.725,0.588,1.311,1.312,1.311H85.6
	c0.119,0.008,0.246,0.01,0.377,0.01c2.678,0,7.447-1.461,8.592-7.186C95.42,51.309,94.461,45.825,89.215,43.205z M10.807,35.592
	L10.807,35.592c-0.428,0-1.148-0.239-1.774-0.909c-0.66-0.708-1.408-2.104-1.221-4.734c0.3-4.263,5.202-5.244,5.407-5.283
	l1.164-0.214l-0.092-1.179c-0.002-0.033-0.189-3.222,1.981-4.623c1.704-1.099,4.165-0.43,4.184-0.425l0.837,0.241l0.547-0.679
	c0.061-0.075,0.371-0.467,0.569-0.861c0.798-1.583,4.165-4.659,6.862-4.878c3.098-0.249,4.396-0.186,6.789,1.531
	c1.049,0.752,1.863,1.647,2.442,2.665c-6.998,3.665-11.804,10.945-11.922,19.349L10.807,35.592L10.807,35.592z M58.293,36.825
	c-1.389-0.222-4.016-0.372-6.203,1.039c-2.886,1.863-3.481,5.117-3.583,6.836c-2.914,0.874-7.169,3.401-7.526,8.462
	c-0.018,0.246-0.009,0.463-0.015,0.693c-7.119-3.073-11.778-10.043-11.778-17.948c0-10.792,8.78-19.571,19.572-19.571
	c8.555,0,16.055,5.544,18.631,13.602C63.6,30.809,59.598,34.407,58.293,36.825z"/>
<path d="M37.239,61.453c-0.658-0.307-1.438-0.025-1.746,0.633l-5.403,11.57c-0.306,0.656-0.022,1.436,0.634,1.744
	c0.179,0.082,0.368,0.123,0.554,0.123c0.495,0,0.967-0.279,1.19-0.758l5.403-11.57C38.178,62.541,37.895,61.76,37.239,61.453z"/>
<path d="M52.4,55.17c-0.656-0.303-1.438-0.018-1.741,0.643L37.964,83.305c-0.305,0.656-0.018,1.438,0.641,1.74
	c0.177,0.082,0.364,0.121,0.548,0.121c0.497,0,0.971-0.281,1.192-0.762L53.041,56.91C53.346,56.254,53.059,55.475,52.4,55.17z"/>
<path d="M65.781,55.607c-0.656-0.311-1.438-0.031-1.748,0.623L47.976,90.039c-0.312,0.654-0.033,1.436,0.622,1.748
	c0.182,0.086,0.372,0.127,0.562,0.127c0.49,0,0.961-0.277,1.187-0.75l16.057-33.809C66.715,56.701,66.436,55.92,65.781,55.607z"/>
<path d="M74.398,65.074c-0.664-0.291-1.439,0.01-1.73,0.672l-6.594,15.008c-0.293,0.664,0.01,1.438,0.674,1.729
	c0.172,0.076,0.352,0.111,0.527,0.111c0.504,0,0.983-0.291,1.201-0.783l6.596-15.008C75.363,66.139,75.061,65.363,74.398,65.074z"/>
</svg>
