<?xml version="1.0" encoding="utf-8"?>
<!-- Generator: Adobe Illustrator 16.0.0, SVG Export Plug-In . SVG Version: 6.00 Build 0)  -->
<!DOCTYPE svg PUBLIC "-//W3C//DTD SVG 1.1//EN" "http://www.w3.org/Graphics/SVG/1.1/DTD/svg11.dtd">
<svg version="1.1" id="Layer_1" xmlns="http://www.w3.org/2000/svg" xmlns:xlink="http://www.w3.org/1999/xlink" x="0px" y="0px"
	 width="100px" height="100px" viewBox="0 0 100 100" style="enable-background:new 0 0 100 100;" xml:space="preserve">
<path d="M66.938,66.646c-0.506,0-0.99-0.287-1.22-0.773c-0.315-0.673-0.026-1.475,0.646-1.789
	c5.559-2.611,9.794-7.243,12.598-13.782c-0.758,0.071-1.787,0.224-2.681,0.355c-7.182,1.062-22.125,3.276-28.082-10.462
	c-6.375-14.696,1.695-24.115,6.029-29.174c0.826-0.962,1.822-2.127,2.145-2.744c-0.413-0.137-1.43-0.333-3.867-0.333
	c-16.039,0-27.241,11.867-27.241,28.856c0,10.452,5.598,20.25,14.609,25.566c0.64,0.379,0.853,1.204,0.476,1.843
	c-0.377,0.641-1.204,0.854-1.842,0.477c-9.829-5.801-15.934-16.484-15.934-27.885c0-18.279,12.588-31.547,29.933-31.547
	c3.546,0,5.74,0.305,6.458,1.865c0.752,1.636-0.617,3.235-2.691,5.654c-4.229,4.937-11.31,13.199-5.604,26.353
	c5.14,11.845,18.2,9.909,25.22,8.87c3.399-0.502,4.949-0.732,5.812,0.351c0.188,0.238,0.592,0.897,0.215,1.856
	c-3.011,7.664-7.991,13.306-14.403,16.316C67.324,66.605,67.129,66.646,66.938,66.646z"/>
<path d="M29.578,79.855c-0.19,0-0.384-0.041-0.567-0.125c-0.674-0.315-0.965-1.117-0.651-1.791l4.929-10.557
	c0.314-0.673,1.114-0.962,1.788-0.652c0.674,0.315,0.965,1.117,0.65,1.791l-4.929,10.557C30.57,79.566,30.085,79.855,29.578,79.855z
	"/>
<path d="M36.763,88.654c-0.201,0-0.405-0.045-0.598-0.143c-0.665-0.33-0.937-1.138-0.606-1.803l12.767-25.697
	c0.331-0.664,1.135-0.936,1.804-0.604c0.665,0.331,0.937,1.138,0.604,1.803L37.969,87.908
	C37.734,88.382,37.259,88.654,36.763,88.654z"/>
<path d="M45.893,94.812c-0.204,0-0.411-0.045-0.606-0.146c-0.664-0.337-0.929-1.146-0.594-1.81l16.53-32.66
	c0.336-0.662,1.146-0.93,1.81-0.594s0.929,1.146,0.594,1.809L47.095,94.074C46.857,94.544,46.384,94.812,45.893,94.812z"/>
<path d="M62.424,88.068c-0.181,0-0.363-0.036-0.541-0.115c-0.68-0.297-0.988-1.092-0.689-1.771l7.476-17.009
	c0.297-0.681,1.09-0.989,1.772-0.69c0.681,0.3,0.988,1.094,0.688,1.773l-7.474,17.01C63.436,87.77,62.941,88.068,62.424,88.068z"/>
</svg>
