<?xml version="1.0" encoding="utf-8"?>
<!-- Generator: Adobe Illustrator 16.0.0, SVG Export Plug-In . SVG Version: 6.00 Build 0)  -->
<!DOCTYPE svg PUBLIC "-//W3C//DTD SVG 1.1//EN" "http://www.w3.org/Graphics/SVG/1.1/DTD/svg11.dtd">
<svg version="1.1" id="Layer_1" xmlns="http://www.w3.org/2000/svg" xmlns:xlink="http://www.w3.org/1999/xlink" x="0px" y="0px"
	 width="100px" height="100px" viewBox="0 0 100 100" style="enable-background:new 0 0 100 100;" xml:space="preserve">
<path d="M87.232,35.315c-3.469-1.732-6.408-1.934-8.186-1.824c0.083-2.926-0.609-8.961-6.885-13.461
	c-4.633-3.321-7.652-3.482-12.998-3.045c-4.391,0.356-9.296,3.993-12.007,7.233c-0.851-1.286-1.936-2.436-3.29-3.406
	c-3.573-2.564-5.897-2.687-10.007-2.355c-4.207,0.344-9.033,4.579-10.462,7.292c-1.406-0.231-4.13-0.41-6.392,1.05
	c-2.978,1.921-3.565,5.298-3.66,7.038c-2.981,0.877-7.385,3.461-7.754,8.666c-0.295,4.166,1.045,6.542,2.221,7.801
	c1.162,1.243,2.728,1.985,4.19,1.985c0.002,0,0.006,0,0.01,0h10.129c0.417,3.094,1.628,5.066,2.734,6.25
	c1.463,1.566,3.429,2.502,5.253,2.502c0.005,0,0.01,0,0.012,0h16.216c0.701,0,1.271-0.568,1.271-1.271s-0.57-1.271-1.271-1.271
	H30.141c-0.002,0-0.004,0-0.004,0c-0.881,0-2.235-0.444-3.401-1.694c-1.159-1.242-2.476-3.658-2.159-8.125
	c0.523-7.408,8.893-9.059,9.249-9.126l1.119-0.213l-0.083-1.133c-0.005-0.056-0.367-5.581,3.511-8.083
	c3.018-1.949,7.26-0.785,7.301-0.772l0.812,0.233l0.53-0.659c0.052-0.066,0.522-0.657,0.811-1.222c1.338-2.653,7-7.816,11.546-8.186
	c5.023-0.409,7.307-0.292,11.311,2.579c7.051,5.056,5.767,12.329,5.709,12.632l-0.4,2.039l1.998-0.573
	c0.033-0.007,3.435-0.939,8.109,1.396c7.267,3.631,6.01,11.934,5.686,13.562c-1.528,7.63-8.783,7.361-9.161,7.349h-8.738
	c-0.702,0-1.271,0.567-1.271,1.271s0.568,1.271,1.271,1.271l8.667-0.003c0.158,0.009,0.323,0.015,0.494,0.015
	c3.496,0,9.73-1.914,11.23-9.404C94.664,49.702,96.152,39.773,87.232,35.315z M45.473,26.703c-1.69-0.317-5.422-0.689-8.48,1.282
	c-3.977,2.569-4.609,7.188-4.68,9.308c-3.839,1.045-9.789,4.361-10.274,11.206c-0.03,0.439-0.027,0.84-0.031,1.249h-9.996
	c-0.002,0-0.002,0-0.005,0c-0.57,0-1.521-0.309-2.336-1.179c-0.83-0.89-1.773-2.634-1.543-5.887c0.379-5.336,6.46-6.546,6.716-6.595
	l1.126-0.207l-0.089-1.143c-0.003-0.04-0.283-4.003,2.504-5.8c2.154-1.391,5.22-0.554,5.247-0.546l0.812,0.234l0.529-0.659
	c0.069-0.084,0.419-0.53,0.648-0.977c0.98-1.944,5.123-5.727,8.447-5.998c3.709-0.302,5.387-0.216,8.318,1.886
	c1.411,1.011,2.465,2.245,3.185,3.651c-0.005,0.007-0.01,0.018-0.015,0.026C45.533,26.6,45.504,26.651,45.473,26.703z"/>
<path d="M69.137,60.452h-0.002l-7.994,0.006l4.68-13.683c0.197-0.577-0.043-1.214-0.573-1.516c-0.531-0.304-1.201-0.184-1.599,0.283
	L44.786,67.795c-0.324,0.381-0.394,0.917-0.178,1.367c0.214,0.449,0.668,0.701,1.174,0.725l7.231-0.152l-4.292,13.469
	c-0.184,0.572,0.061,1.195,0.584,1.49c0.196,0.111,0.411,0.166,0.625,0.166c0.357,0,0.708-0.15,0.956-0.433L70.09,62.562
	c0.33-0.377,0.409-0.908,0.203-1.364C70.088,60.743,69.635,60.452,69.137,60.452z M52.988,78.184l2.986-9.371
	c0.123-0.391,0.051-0.817-0.193-1.146c-0.24-0.321-0.617-0.511-1.02-0.511c-0.008,0-0.017,0-0.025,0l-6.188,0.131L61.24,52.314
	l-3.08,9.004c-0.133,0.39-0.07,0.816,0.168,1.15S58.953,63,59.361,63h0.002l6.964-0.005L52.988,78.184z"/>
</svg>
