<?xml version="1.0" encoding="utf-8"?>
<!-- Generator: Adobe Illustrator 16.0.0, SVG Export Plug-In . SVG Version: 6.00 Build 0)  -->
<!DOCTYPE svg PUBLIC "-//W3C//DTD SVG 1.1//EN" "http://www.w3.org/Graphics/SVG/1.1/DTD/svg11.dtd">
<svg version="1.1" id="Layer_1" xmlns="http://www.w3.org/2000/svg" xmlns:xlink="http://www.w3.org/1999/xlink" x="0px" y="0px"
	 width="100px" height="100px" viewBox="0 0 100 100" style="enable-background:new 0 0 100 100;" xml:space="preserve">
<path d="M75.07,30.161c-7.369,0.001-15.836-0.738-25.194-2.214c-29.225-4.616-42.687-0.111-42.82-0.064
	c-0.762,0.266-1.586-0.138-1.849-0.896c-0.264-0.758,0.138-1.587,0.896-1.85c0.568-0.197,14.28-4.79,44.228-0.064
	c18.12,2.862,32.733,2.918,42.261,0.161c0.207-0.061,0.366-0.106,0.479-0.135c0.775-0.197,1.568,0.281,1.762,1.059
	c0.195,0.778-0.277,1.567-1.057,1.763l-0.377,0.105C88.479,29.449,82.305,30.161,75.07,30.161z"/>
<path d="M75.07,47.224c-7.369,0-15.836-0.738-25.194-2.215C20.651,40.393,7.189,44.9,7.056,44.945
	c-0.753,0.267-1.585-0.136-1.849-0.895c-0.264-0.758,0.138-1.587,0.896-1.851C6.671,42,20.383,37.41,50.331,42.137
	c18.12,2.86,32.733,2.916,42.261,0.159c0.207-0.06,0.366-0.105,0.479-0.133c0.775-0.199,1.568,0.28,1.762,1.058
	c0.195,0.779-0.277,1.568-1.057,1.763l-0.377,0.106C88.479,46.512,82.305,47.224,75.07,47.224z"/>
<path d="M75.07,64.287c-7.369,0-15.836-0.738-25.194-2.217c-29.225-4.616-42.687-0.108-42.82-0.062
	c-0.753,0.268-1.585-0.137-1.849-0.895s0.138-1.588,0.896-1.852c0.568-0.195,14.28-4.789,44.228-0.062
	c18.12,2.858,32.733,2.915,42.261,0.159c0.207-0.061,0.366-0.105,0.479-0.135c0.775-0.195,1.568,0.278,1.762,1.057
	c0.195,0.781-0.277,1.57-1.057,1.764l-0.377,0.107C88.479,63.574,82.305,64.287,75.07,64.287z"/>
<path d="M75.073,81.352c-7.369,0-15.839-0.74-25.197-2.218c-29.113-4.599-42.689-0.106-42.823-0.062
	c-0.758,0.259-1.585-0.143-1.847-0.899c-0.262-0.757,0.138-1.584,0.896-1.846c0.571-0.198,14.28-4.792,44.228-0.065
	c18.129,2.864,32.738,2.92,42.261,0.159c0.207-0.06,0.366-0.104,0.478-0.134c0.777-0.188,1.57,0.277,1.764,1.061
	c0.195,0.776-0.277,1.565-1.057,1.762L93.4,79.213C88.48,80.639,82.307,81.352,75.073,81.352z"/>
</svg>
